<?xml version="1.0" encoding="utf-8"?>
<!-- Generator: Adobe Illustrator 28.1.0, SVG Export Plug-In . SVG Version: 6.00 Build 0)  -->
<svg version="1.1" id="Capa_1" xmlns="http://www.w3.org/2000/svg" xmlns:xlink="http://www.w3.org/1999/xlink" x="0px" y="0px"
	 viewBox="0 0 850.4 425.2" style="enable-background:new 0 0 850.4 425.2;" xml:space="preserve">
<g>
	<g>
		<g>
			<g>
				<g>
					<path d="M333.5,198.8c-3.7-2.1-8-3.2-12.9-3.2c-4.1,0-7.9,0.9-11.2,2.8c-2.3,1.3-4.3,3-6,5.2v-27.3h-9v69.2h8.6v-7.8
						c1.7,2.3,3.8,4.2,6.2,5.5c3.4,1.9,7.2,2.8,11.4,2.8c4.9,0,9.1-1.1,12.9-3.2c3.7-2.1,6.7-5.1,8.9-8.9c2.2-3.8,3.3-8.2,3.3-13.2
						c0-5-1.1-9.4-3.3-13.2C340.2,203.9,337.2,201,333.5,198.8z M334.4,230.1c-1.5,2.6-3.5,4.7-6,6.1c-2.5,1.4-5.4,2.1-8.5,2.1
						c-3.1,0-5.9-0.7-8.4-2.1c-2.5-1.4-4.5-3.5-6-6.1c-1.5-2.6-2.2-5.7-2.2-9.2c0-3.5,0.7-6.6,2.2-9.2c1.5-2.6,3.5-4.6,6-6
						c2.5-1.4,5.3-2.1,8.4-2.1c3.2,0,6,0.7,8.5,2.1c2.5,1.4,4.5,3.4,6,6c1.5,2.6,2.2,5.6,2.2,9.2
						C336.6,224.4,335.8,227.4,334.4,230.1z"/>
				</g>
				<g>
					<path d="M390.9,198.8c-3.7-2.1-7.9-3.2-12.7-3.2c-4.7,0-9,1.1-12.7,3.2c-3.8,2.1-6.7,5.1-8.9,8.9c-2.1,3.8-3.2,8.1-3.2,13.1
						c0,4.9,1.1,9.3,3.3,13.1c2.2,3.8,5.3,6.8,9.3,9c4,2.2,8.7,3.3,13.9,3.3c4.1,0,7.8-0.7,11.1-2.1c3.3-1.4,6.1-3.4,8.4-6l-4.9-5.8
						c-1.8,2-3.9,3.5-6.3,4.5c-2.4,1-5.1,1.5-8,1.5c-3.5,0-6.7-0.7-9.4-2.1c-2.7-1.4-4.9-3.4-6.4-6c-1.1-1.9-1.8-4-2.1-6.3h40.1
						c0.1-0.4,0.1-0.9,0.1-1.4c0-0.5,0-0.9,0-1.3c0-5.1-1-9.6-3.1-13.4C397.5,203.9,394.6,201,390.9,198.8z M370,205.3
						c2.4-1.4,5.2-2.1,8.3-2.1c3.2,0,6,0.7,8.4,2.1c2.4,1.4,4.3,3.3,5.6,5.8c1,1.9,1.7,4,1.9,6.3h-31.8c0.3-2.3,0.9-4.3,1.9-6.2
						C365.6,208.7,367.5,206.7,370,205.3z"/>
				</g>
				<g>
					<path d="M433.5,199.4c1.6-1.6,3.5-2.9,5.7-3.8c2.2-0.9,4.7-1.3,7.4-1.3c3.1,0,5.9,0.7,8.4,2c2.5,1.3,4.8,3.2,7,5.7l11.8-10.6
						c-3.2-4-7.1-7-11.9-9.1c-4.8-2.1-10.2-3.2-16.2-3.2c-5.2,0-9.9,0.8-14.3,2.5c-4.4,1.6-8.2,4-11.4,7c-3.2,3-5.7,6.6-7.5,10.8
						c-1.8,4.1-2.7,8.7-2.7,13.7c0,5,0.9,9.5,2.7,13.7c1.8,4.1,4.3,7.7,7.5,10.8c3.2,3,7,5.4,11.4,7c4.4,1.6,9.2,2.5,14.3,2.5
						c6,0,11.4-1.1,16.2-3.2c4.8-2.1,8.7-5.2,11.9-9.1L462,223.9c-2.1,2.5-4.4,4.4-7,5.7c-2.5,1.3-5.3,2-8.4,2
						c-2.7,0-5.1-0.4-7.4-1.3c-2.2-0.9-4.2-2.1-5.7-3.8c-1.6-1.6-2.8-3.6-3.7-5.9c-0.9-2.3-1.4-4.9-1.4-7.7c0-2.8,0.5-5.3,1.4-7.7
						C430.7,203,432,201,433.5,199.4z"/>
				</g>
				<g>
					<path d="M539.5,188.6c-3.2-3.1-7-5.5-11.4-7.1c-4.4-1.7-9.2-2.5-14.5-2.5c-5.2,0-10,0.8-14.5,2.5c-4.4,1.7-8.3,4.1-11.5,7.1
						c-3.3,3.1-5.8,6.7-7.6,10.8c-1.8,4.1-2.7,8.6-2.7,13.5c0,4.9,0.9,9.4,2.7,13.5c1.8,4.1,4.3,7.7,7.6,10.8
						c3.3,3.1,7.1,5.5,11.5,7.1c4.4,1.7,9.2,2.5,14.5,2.5c5.3,0,10.1-0.8,14.5-2.5c4.4-1.7,8.2-4,11.4-7.1c3.2-3,5.8-6.6,7.6-10.8
						c1.8-4.1,2.8-8.7,2.8-13.6c0-4.9-0.9-9.4-2.8-13.5C545.3,195.3,542.7,191.7,539.5,188.6z M529.8,220.6
						c-0.9,2.3-2.1,4.3-3.7,5.9c-1.6,1.6-3.5,2.9-5.6,3.8c-2.1,0.9-4.5,1.3-7,1.3c-2.5,0-4.8-0.4-7-1.3c-2.1-0.9-4-2.1-5.6-3.8
						c-1.6-1.6-2.8-3.6-3.7-5.9c-0.9-2.3-1.4-4.9-1.4-7.7c0-2.9,0.5-5.4,1.4-7.7c0.9-2.3,2.1-4.2,3.7-5.9c1.6-1.6,3.5-2.9,5.6-3.8
						c2.1-0.9,4.5-1.3,7-1.3c2.5,0,4.8,0.4,7,1.3c2.1,0.9,4,2.1,5.6,3.8c1.6,1.6,2.8,3.6,3.7,5.9c0.9,2.3,1.4,4.8,1.4,7.7
						C531.2,215.7,530.7,218.3,529.8,220.6z"/>
				</g>
				<g>
					<polygon points="559.5,245.6 578,245.6 578,223.2 606.8,223.2 606.8,208.9 578,208.9 578,194.6 610.8,194.6 610.8,180.3 
						559.5,180.3 					"/>
				</g>
				<g>
					<polygon points="619.4,245.6 637.9,245.6 637.9,223.2 666.7,223.2 666.7,208.9 637.9,208.9 637.9,194.6 670.7,194.6 
						670.7,180.3 619.4,180.3 					"/>
				</g>
				<g>
					<polygon points="697.6,219.4 726.6,219.4 726.6,205.6 697.6,205.6 697.6,194.6 730.6,194.6 730.6,180.3 679.3,180.3 
						679.3,245.6 731.8,245.6 731.8,231.3 697.6,231.3 					"/>
				</g>
				<g>
					<polygon points="760.3,231.3 760.3,219.4 789.3,219.4 789.3,205.6 760.3,205.6 760.3,194.6 793.3,194.6 793.3,180.3 742,180.3 
						742,245.6 794.5,245.6 794.5,231.3 					"/>
				</g>
			</g>
		</g>
		<g>
			<g>
				<g>
					<path d="M710.7,264.9c-2.9-1.6-6.2-2.4-9.9-2.4c-3.3,0-6.2,0.7-8.8,2.2c-1.9,1-3.5,2.5-4.8,4.2v-6h-6.6v52.1h6.9v-19.7
						c1.3,1.7,2.8,3,4.6,4c2.6,1.5,5.5,2.2,8.7,2.2c3.7,0,7-0.8,9.9-2.4c2.9-1.6,5.2-3.9,6.8-6.8c1.7-2.9,2.5-6.3,2.5-10.2
						c0-3.9-0.8-7.3-2.5-10.2C715.9,268.8,713.6,266.5,710.7,264.9z M711.4,288.9c-1.1,2-2.7,3.6-4.6,4.7c-1.9,1.1-4.1,1.7-6.6,1.7
						c-2.4,0-4.6-0.6-6.5-1.7c-1.9-1.1-3.5-2.7-4.6-4.7c-1.1-2-1.7-4.4-1.7-7.1c0-2.7,0.6-5.1,1.7-7.1c1.1-2,2.7-3.5,4.6-4.6
						c1.9-1.1,4.1-1.7,6.5-1.7c2.4,0,4.6,0.6,6.6,1.7c1.9,1.1,3.5,2.6,4.6,4.6c1.1,2,1.7,4.4,1.7,7.1
						C713.1,284.5,712.5,286.9,711.4,288.9z"/>
				</g>
				<g>
					<path d="M736.2,269.2v-6.4h-6.6v38.1h6.9v-19c0-4.2,1.1-7.4,3.2-9.6c2.2-2.2,5.1-3.3,8.8-3.3c0.2,0,0.5,0,0.8,0
						c0.3,0,0.5,0,0.8,0.1v-6.7c-3.6,0-6.7,0.7-9.2,2.1C738.9,265.7,737.3,267.2,736.2,269.2z"/>
				</g>
				<g>
					<path d="M791.8,271.8c-1.7-2.9-4.1-5.2-7-6.8c-3-1.7-6.4-2.5-10.2-2.5c-3.8,0-7.2,0.8-10.2,2.5c-3,1.7-5.3,3.9-7,6.9
						c-1.7,2.9-2.6,6.3-2.6,10.1c0,3.7,0.9,7.1,2.6,10s4.1,5.3,7,6.9c3,1.7,6.4,2.5,10.2,2.5c3.8,0,7.2-0.8,10.2-2.5
						c3-1.7,5.3-4,7-6.9c1.7-2.9,2.6-6.3,2.6-10.1C794.4,278,793.5,274.7,791.8,271.8z M785.7,288.9c-1.1,2-2.6,3.6-4.6,4.7
						c-1.9,1.1-4.1,1.7-6.6,1.7s-4.6-0.6-6.5-1.7c-1.9-1.1-3.5-2.7-4.6-4.7c-1.2-2-1.7-4.4-1.7-7.1c0-2.7,0.6-5.1,1.7-7.1
						c1.2-2,2.7-3.5,4.6-4.6c1.9-1.1,4.1-1.7,6.5-1.7s4.6,0.6,6.6,1.7c1.9,1.1,3.5,2.6,4.6,4.6c1.1,2,1.7,4.4,1.7,7.1
						C787.4,284.5,786.8,286.9,785.7,288.9z"/>
				</g>
			</g>
			<g>
				<path d="M662.5,263.4H294.4c-0.6,0-1-0.4-1-1s0.4-1,1-1h368.2c0.6,0,1,0.4,1,1S663.1,263.4,662.5,263.4z"/>
			</g>
		</g>
	</g>
	<g>
		<path d="M229.7,176.2l-46.5-46.5l23.9-23.9c7-7,7-18.5,0-25.5c-3.4-3.4-7.9-5.3-12.8-5.3s-9.3,1.9-12.8,5.3l-95.9,95.9
			C46,216,46,280.6,85.7,320.3c19.6,19.6,45.6,29.9,72,29.9c15.7,0,31.5-3.6,46.2-11.1c8.9-4.5,12.4-15.4,7.9-24.3l0,0
			c-4.5-8.9-15.4-12.4-24.3-7.9c-25.5,13-56.1,8.1-76.3-12.1c-25.6-25.6-25.6-67.4,0-93l46.5-46.5l46.5,46.5
			c20.2,20.2,25.1,50.9,12.1,76.3c-3.6,7-2.2,15.4,3.3,20.9c1.3,1.3,2.9,2.5,4.6,3.3c8.9,4.5,19.7,1,24.3-7.9
			C268.6,255,261,207.5,229.7,176.2z"/>
	</g>
</g>
</svg>
