<?xml version="1.0" encoding="UTF-8"?>
<svg id="Capa_1" data-name="Capa 1" xmlns="http://www.w3.org/2000/svg" width="200mm" height="200mm" viewBox="0 0 566.93 566.93">
  <g>
    <g>
      <path d="M73.01,389.7c-3.73-2.11-8.02-3.17-12.88-3.17-4.11,0-7.85.93-11.24,2.8-2.33,1.28-4.33,3.02-6.02,5.19v-27.3h-8.96v69.23h8.58v-7.82c1.7,2.32,3.76,4.17,6.2,5.53,3.39,1.9,7.2,2.85,11.43,2.85,4.85,0,9.14-1.06,12.88-3.17,3.73-2.11,6.69-5.07,8.86-8.86,2.18-3.79,3.27-8.21,3.27-13.25s-1.09-9.44-3.27-13.2c-2.18-3.76-5.13-6.7-8.86-8.82ZM73.9,420.91c-1.46,2.64-3.45,4.68-5.97,6.11-2.52,1.43-5.36,2.15-8.54,2.15s-5.92-.71-8.44-2.15c-2.52-1.43-4.51-3.47-5.97-6.11-1.46-2.64-2.19-5.71-2.19-9.19s.73-6.61,2.19-9.19c1.46-2.58,3.45-4.59,5.97-6.02,2.52-1.43,5.33-2.15,8.44-2.15s6.02.72,8.54,2.15c2.52,1.43,4.51,3.44,5.97,6.02,1.46,2.58,2.19,5.64,2.19,9.19s-.73,6.55-2.19,9.19Z" fill="#231f20" stroke-width="0"/>
      <path d="M130.48,389.7c-3.67-2.11-7.9-3.17-12.69-3.17s-8.97,1.07-12.74,3.22c-3.76,2.15-6.72,5.12-8.86,8.91-2.15,3.79-3.22,8.15-3.22,13.06s1.1,9.27,3.31,13.06c2.21,3.79,5.32,6.78,9.33,8.96,4.01,2.18,8.66,3.27,13.95,3.27,4.11,0,7.82-.68,11.15-2.05,3.33-1.37,6.11-3.36,8.35-5.97l-4.95-5.79c-1.8,1.99-3.9,3.48-6.3,4.48-2.4,1-5.05,1.49-7.98,1.49-3.55,0-6.69-.71-9.42-2.15-2.74-1.43-4.87-3.44-6.39-6.02-1.12-1.9-1.83-4-2.12-6.3h40.14c.06-.43.11-.9.14-1.4.03-.5.05-.93.05-1.31,0-5.1-1.04-9.56-3.13-13.39-2.08-3.83-4.96-6.8-8.63-8.91ZM109.49,396.19c2.43-1.4,5.19-2.1,8.3-2.1s5.96.7,8.35,2.1c2.39,1.4,4.28,3.34,5.64,5.83,1.04,1.89,1.66,3.97,1.87,6.25h-31.78c.26-2.26.9-4.33,1.91-6.2,1.37-2.52,3.27-4.48,5.69-5.88Z" fill="#231f20" stroke-width="0"/>
      <path d="M173.08,390.22c1.59-1.65,3.5-2.91,5.74-3.78,2.24-.87,4.7-1.31,7.37-1.31,3.11,0,5.92.65,8.44,1.96,2.52,1.31,4.84,3.2,6.95,5.69l11.76-10.64c-3.17-3.98-7.14-7.03-11.9-9.14-4.76-2.11-10.16-3.17-16.19-3.17-5.16,0-9.94.83-14.32,2.47s-8.18,4-11.38,7.04c-3.2,3.05-5.71,6.64-7.51,10.78-1.8,4.14-2.71,8.69-2.71,13.67s.9,9.53,2.71,13.67c1.8,4.14,4.31,7.73,7.51,10.78,3.2,3.05,7,5.4,11.38,7.04,4.39,1.65,9.16,2.47,14.32,2.47,6.03,0,11.43-1.07,16.19-3.22,4.76-2.15,8.72-5.18,11.9-9.1l-11.76-10.64c-2.12,2.49-4.43,4.38-6.95,5.69-2.52,1.31-5.33,1.96-8.44,1.96-2.67,0-5.13-.43-7.37-1.31-2.24-.87-4.15-2.13-5.74-3.78-1.59-1.65-2.83-3.62-3.73-5.92-.9-2.3-1.35-4.85-1.35-7.65s.45-5.35,1.35-7.65c.9-2.3,2.15-4.28,3.73-5.92Z" fill="#231f20" stroke-width="0"/>
      <path d="M279.02,379.49c-3.23-3.08-7.04-5.46-11.43-7.14-4.39-1.68-9.22-2.52-14.51-2.52s-10.05.84-14.46,2.52c-4.42,1.68-8.26,4.06-11.52,7.14-3.27,3.08-5.8,6.67-7.6,10.78-1.8,4.11-2.71,8.62-2.71,13.53s.9,9.42,2.71,13.53c1.8,4.11,4.34,7.7,7.6,10.78,3.27,3.08,7.11,5.46,11.52,7.14,4.42,1.68,9.24,2.52,14.46,2.52s10.12-.84,14.51-2.52c4.39-1.68,8.19-4.04,11.43-7.09,3.23-3.05,5.77-6.64,7.6-10.78,1.83-4.14,2.75-8.66,2.75-13.57s-.92-9.42-2.75-13.53c-1.84-4.11-4.37-7.7-7.6-10.78ZM269.36,411.44c-.9,2.3-2.15,4.28-3.73,5.92-1.59,1.65-3.45,2.91-5.6,3.78-2.15.87-4.46,1.31-6.95,1.31s-4.8-.43-6.95-1.31c-2.15-.87-4.01-2.13-5.6-3.78-1.59-1.65-2.83-3.62-3.73-5.92-.9-2.3-1.35-4.85-1.35-7.65s.45-5.43,1.35-7.7c.9-2.27,2.15-4.23,3.73-5.88,1.59-1.65,3.45-2.91,5.6-3.78,2.15-.87,4.46-1.31,6.95-1.31s4.8.44,6.95,1.31c2.15.87,4.01,2.13,5.6,3.78,1.59,1.65,2.83,3.61,3.73,5.88.9,2.27,1.35,4.84,1.35,7.7s-.45,5.35-1.35,7.65Z" fill="#231f20" stroke-width="0"/>
      <polygon points="299.08 436.45 317.55 436.45 317.55 414.06 346.38 414.06 346.38 399.78 317.55 399.78 317.55 385.41 350.3 385.41 350.3 371.14 299.08 371.14 299.08 436.45" fill="#231f20" stroke-width="0"/>
      <polygon points="358.98 436.45 377.45 436.45 377.45 414.06 406.28 414.06 406.28 399.78 377.45 399.78 377.45 385.41 410.2 385.41 410.2 371.14 358.98 371.14 358.98 436.45" fill="#231f20" stroke-width="0"/>
      <polygon points="437.17 410.23 466.18 410.23 466.18 396.42 437.17 396.42 437.17 385.41 470.1 385.41 470.1 371.14 418.88 371.14 418.88 436.45 471.31 436.45 471.31 422.17 437.17 422.17 437.17 410.23" fill="#231f20" stroke-width="0"/>
      <polygon points="499.87 422.17 499.87 410.23 528.88 410.23 528.88 396.42 499.87 396.42 499.87 385.41 532.8 385.41 532.8 371.14 481.58 371.14 481.58 436.45 534.01 436.45 534.01 422.17 499.87 422.17" fill="#231f20" stroke-width="0"/>
    </g>
    <path d="M355.51,162.41l-46.51-46.51,23.92-23.92c7.03-7.03,7.03-18.47,0-25.5-3.41-3.41-7.94-5.28-12.75-5.28s-9.35,1.88-12.75,5.28l-95.93,95.93c-39.71,39.71-39.71,104.32,0,144.03,19.61,19.61,45.59,29.89,71.96,29.89,15.7,0,31.54-3.64,46.25-11.13,8.86-4.51,12.4-15.39,7.89-24.25h0c-4.52-8.86-15.4-12.4-24.25-7.89-25.46,12.96-56.13,8.09-76.34-12.12-25.65-25.65-25.65-67.38,0-93.02l46.51-46.51,46.51,46.51c20.21,20.21,25.07,50.88,12.11,76.34-3.55,6.98-2.22,15.4,3.32,20.93,1.34,1.34,2.87,2.45,4.57,3.32,8.86,4.51,19.74.97,24.25-7.89,20.07-39.42,12.53-86.92-18.76-118.21Z" stroke-width="0"/>
  </g>
  <g>
    <g>
      <path d="M450.24,455.74c-2.88-1.63-6.19-2.45-9.93-2.45-3.26,0-6.2.72-8.81,2.16-1.88,1.04-3.47,2.45-4.78,4.23v-6.03h-6.62v52.08h6.91v-19.75c1.3,1.68,2.84,3.03,4.64,4.03,2.61,1.46,5.5,2.19,8.67,2.19,3.74,0,7.05-.81,9.93-2.45,2.88-1.63,5.15-3.91,6.83-6.83,1.68-2.92,2.52-6.33,2.52-10.21s-.84-7.28-2.52-10.18c-1.68-2.9-3.96-5.17-6.83-6.8ZM450.93,479.8c-1.13,2.04-2.66,3.61-4.6,4.71-1.94,1.1-4.14,1.65-6.58,1.65s-4.57-.55-6.51-1.65c-1.94-1.1-3.48-2.67-4.6-4.71-1.13-2.04-1.69-4.4-1.69-7.08s.56-5.09,1.69-7.08c1.13-1.99,2.66-3.54,4.6-4.64,1.94-1.1,4.11-1.65,6.51-1.65s4.64.55,6.58,1.65c1.94,1.1,3.48,2.65,4.6,4.64,1.13,1.99,1.69,4.35,1.69,7.08s-.56,5.05-1.69,7.08Z" fill="#231f20" stroke-width="0"/>
      <path d="M475.78,460.06v-6.41h-6.62v38.12h6.91v-18.99c0-4.17,1.08-7.36,3.24-9.57,2.16-2.21,5.08-3.31,8.78-3.31h.75c.26,0,.54.02.83.07v-6.69c-3.64,0-6.71.7-9.21,2.09-2.05,1.14-3.6,2.71-4.68,4.69Z" fill="#231f20" stroke-width="0"/>
      <path d="M531.35,462.61c-1.7-2.9-4.05-5.18-7.05-6.83-3-1.66-6.39-2.48-10.18-2.48s-7.24.83-10.21,2.48c-2.97,1.65-5.32,3.94-7.05,6.87-1.73,2.93-2.59,6.28-2.59,10.07s.86,7.08,2.59,10.03,4.08,5.26,7.05,6.94c2.97,1.68,6.38,2.52,10.21,2.52s7.18-.84,10.18-2.52c3-1.68,5.35-3.98,7.05-6.91,1.7-2.92,2.55-6.28,2.55-10.07s-.85-7.2-2.55-10.11ZM525.27,479.8c-1.1,2.04-2.63,3.61-4.57,4.71-1.94,1.1-4.14,1.65-6.58,1.65s-4.63-.55-6.55-1.65c-1.92-1.1-3.45-2.67-4.6-4.71-1.15-2.04-1.73-4.4-1.73-7.08s.58-5.09,1.73-7.08c1.15-1.99,2.69-3.54,4.6-4.64,1.92-1.1,4.1-1.65,6.55-1.65s4.64.55,6.58,1.65c1.94,1.1,3.46,2.65,4.57,4.64,1.1,1.99,1.65,4.35,1.65,7.08s-.55,5.05-1.65,7.08Z" fill="#231f20" stroke-width="0"/>
    </g>
    <path d="M402.07,454.29H33.92c-.55,0-1-.45-1-1s.45-1,1-1h368.16c.55,0,1,.45,1,1s-.45,1-1,1Z" fill="#231f20" stroke-width="0"/>
  </g>
</svg>