<?xml version="1.0" encoding="UTF-8"?>
<svg id="Capa_1" data-name="Capa 1" xmlns="http://www.w3.org/2000/svg" width="300mm" height="150mm" viewBox="0 0 850.39 425.2">
  <path d="M263.77,176.24l-46.51-46.51,23.92-23.92c7.03-7.03,7.03-18.47,0-25.5-3.41-3.41-7.94-5.28-12.75-5.28s-9.35,1.88-12.75,5.28l-95.93,95.93c-39.71,39.71-39.71,104.32,0,144.03,19.61,19.61,45.59,29.89,71.96,29.89,15.7,0,31.54-3.64,46.25-11.13,8.86-4.51,12.4-15.39,7.89-24.25h0c-4.52-8.86-15.4-12.4-24.25-7.89-25.46,12.96-56.13,8.09-76.34-12.12-25.65-25.65-25.65-67.38,0-93.02l46.51-46.51,46.51,46.51c20.21,20.21,25.07,50.88,12.11,76.34-3.55,6.98-2.22,15.4,3.32,20.93,1.34,1.34,2.87,2.45,4.57,3.32,8.86,4.51,19.74.97,24.25-7.89,20.07-39.42,12.53-86.92-18.76-118.21Z" fill="#006056" stroke-width="0"/>
  <g>
    <g>
      <path d="M359.47,199.9c-3.48-1.97-7.48-2.96-12-2.96-3.83,0-7.32.87-10.48,2.61-2.17,1.2-4.04,2.82-5.61,4.83v-25.44h-8.35v64.52h8v-7.29c1.58,2.16,3.51,3.88,5.78,5.16,3.16,1.77,6.71,2.65,10.65,2.65,4.52,0,8.52-.98,12-2.96,3.48-1.97,6.23-4.72,8.26-8.26,2.03-3.54,3.04-7.65,3.04-12.35s-1.01-8.8-3.04-12.3c-2.03-3.51-4.78-6.25-8.26-8.22ZM360.29,228.99c-1.36,2.46-3.22,4.36-5.57,5.7-2.35,1.33-5,2-7.96,2s-5.52-.67-7.87-2c-2.35-1.33-4.2-3.23-5.57-5.7-1.36-2.46-2.04-5.32-2.04-8.57s.68-6.16,2.04-8.57c1.36-2.4,3.22-4.27,5.57-5.61,2.35-1.33,4.97-2,7.87-2s5.61.67,7.96,2c2.35,1.33,4.2,3.2,5.57,5.61,1.36,2.41,2.04,5.26,2.04,8.57s-.68,6.1-2.04,8.57Z" fill="#006056" stroke-width="0"/>
      <path d="M413.03,199.9c-3.42-1.97-7.36-2.96-11.83-2.96s-8.36,1-11.87,3c-3.51,2-6.26,4.77-8.26,8.31-2,3.54-3,7.6-3,12.17s1.03,8.64,3.09,12.18c2.06,3.54,4.96,6.32,8.7,8.35,3.74,2.03,8.07,3.04,13,3.04,3.83,0,7.29-.64,10.39-1.91,3.1-1.27,5.7-3.13,7.78-5.57l-4.61-5.39c-1.68,1.86-3.64,3.25-5.87,4.17-2.23.93-4.71,1.39-7.44,1.39-3.3,0-6.23-.67-8.78-2-2.55-1.33-4.54-3.2-5.96-5.61-1.05-1.77-1.7-3.73-1.98-5.87h37.41c.06-.41.1-.84.13-1.3.03-.46.04-.87.04-1.22,0-4.75-.97-8.91-2.91-12.48-1.94-3.57-4.62-6.33-8.04-8.31ZM393.47,205.94c2.26-1.3,4.84-1.96,7.74-1.96s5.55.65,7.78,1.96c2.23,1.3,3.99,3.12,5.26,5.43.97,1.76,1.55,3.7,1.75,5.83h-29.62c.24-2.11.84-4.04,1.78-5.78,1.27-2.35,3.04-4.17,5.3-5.48Z" fill="#006056" stroke-width="0"/>
    </g>
    <g>
      <path d="M670.7,260.8c-3.06-1.73-6.58-2.6-10.55-2.6-3.47,0-6.59.77-9.37,2.29-2,1.1-3.69,2.61-5.08,4.5v-6.41h-7.03v55.36h7.34v-20.99c1.38,1.78,3.02,3.22,4.93,4.29,2.78,1.56,5.85,2.33,9.21,2.33,3.98,0,7.49-.87,10.55-2.6,3.06-1.73,5.48-4.15,7.26-7.26,1.78-3.11,2.68-6.73,2.68-10.86s-.89-7.73-2.68-10.82c-1.79-3.08-4.21-5.49-7.26-7.23ZM671.43,286.38c-1.2,2.17-2.83,3.84-4.89,5.01-2.06,1.17-4.4,1.76-7,1.76s-4.86-.59-6.92-1.76c-2.06-1.17-3.7-2.84-4.89-5.01-1.2-2.17-1.8-4.68-1.8-7.53s.6-5.42,1.8-7.53c1.2-2.12,2.83-3.76,4.89-4.93,2.06-1.17,4.37-1.76,6.92-1.76s4.93.59,7,1.76c2.06,1.17,3.7,2.82,4.89,4.93,1.2,2.12,1.8,4.63,1.8,7.53s-.6,5.36-1.8,7.53Z" fill="#006056" stroke-width="0"/>
      <path d="M697.84,265.4v-6.82h-7.03v40.53h7.34v-20.19c0-4.43,1.15-7.82,3.44-10.17,2.29-2.34,5.4-3.52,9.33-3.52h.8c.28,0,.57.03.88.08v-7.11c-3.87,0-7.14.74-9.79,2.22-2.17,1.21-3.83,2.88-4.97,4.98Z" fill="#006056" stroke-width="0"/>
      <path d="M756.91,268.1c-1.81-3.08-4.31-5.51-7.49-7.26-3.19-1.76-6.79-2.64-10.82-2.64s-7.7.88-10.86,2.64c-3.16,1.76-5.66,4.19-7.49,7.3-1.84,3.11-2.75,6.68-2.75,10.7s.92,7.53,2.75,10.67c1.84,3.14,4.33,5.6,7.49,7.38,3.16,1.78,6.78,2.68,10.86,2.68s7.63-.89,10.82-2.68c3.18-1.78,5.68-4.23,7.49-7.34,1.81-3.11,2.71-6.68,2.71-10.7s-.91-7.66-2.71-10.74ZM750.45,286.38c-1.17,2.17-2.79,3.84-4.86,5.01-2.06,1.17-4.4,1.76-7,1.76s-4.92-.59-6.96-1.76c-2.04-1.17-3.67-2.84-4.89-5.01-1.22-2.17-1.84-4.68-1.84-7.53s.61-5.42,1.84-7.53c1.22-2.12,2.85-3.76,4.89-4.93,2.04-1.17,4.36-1.76,6.96-1.76s4.93.59,7,1.76c2.06,1.17,3.68,2.82,4.86,4.93,1.17,2.12,1.76,4.63,1.76,7.53s-.59,5.36-1.76,7.53Z" fill="#006056" stroke-width="0"/>
    </g>
    <path d="M615.23,260.4h-290.47c-.68,0-1.24-.55-1.24-1.24s.55-1.24,1.24-1.24h290.47c.68,0,1.24.55,1.24,1.24s-.55,1.24-1.24,1.24Z" fill="#939598" stroke-width="0"/>
    <g>
      <path d="M460.4,245.51c-7.39,0-13.35-2.05-17.89-6.14-4.54-4.1-6.81-9.68-6.81-16.74,0-1.69.2-3.65.6-5.9l2.65-14.81c1.36-7.55,4.8-13.21,10.3-16.98,5.5-3.77,12.35-5.66,20.54-5.66,7.15,0,13.17,1.85,18.07,5.54.64.4.96.96.96,1.69,0,.64-.2,1.2-.6,1.69l-8.31,10.96c-.56.64-1.2.96-1.93.96-.48,0-1-.16-1.57-.48-2.01-1.12-4.38-1.69-7.11-1.69-2.49,0-4.44.54-5.84,1.63-1.41,1.08-2.31,2.79-2.71,5.12l-2.41,13.61c-.16,1.12-.24,1.97-.24,2.53,0,3.85,2.13,5.78,6.38,5.78,2.73,0,5.66-.8,8.79-2.41.4-.32.88-.48,1.45-.48.8,0,1.4.48,1.81,1.45l5.3,12.41c.16.32.24.72.24,1.2,0,.8-.48,1.53-1.45,2.17-5.78,3.05-12.53,4.58-20.24,4.58Z" fill="#051730" stroke-width="0"/>
      <path d="M546.16,221.06c-2.81,16.3-13.73,24.45-32.76,24.45-4.82,0-9.09-1.01-12.83-3.01-3.73-2.01-6.62-4.76-8.67-8.25-2.05-3.49-3.07-7.49-3.07-11.98,0-1.77.16-3.45.48-5.06l2.41-13.73c1.36-7.79,4.86-13.77,10.48-17.95,5.62-4.17,12.85-6.26,21.68-6.26,4.9,0,9.27.96,13.13,2.89,3.85,1.93,6.84,4.62,8.97,8.07,2.13,3.45,3.19,7.35,3.19,11.68,0,.96-.16,2.57-.48,4.82l-2.53,14.33ZM511.23,219.49c-.16.8-.24,1.41-.24,1.81,0,1.61.48,2.87,1.44,3.79.96.92,2.25,1.39,3.85,1.39,4.34,0,6.91-2.17,7.71-6.5l2.65-14.45c.16-.8.24-1.4.24-1.81,0-1.69-.48-3.03-1.45-4.04-.96-1-2.29-1.51-3.97-1.51-2.01,0-3.67.58-5,1.75-1.33,1.17-2.19,2.75-2.59,4.76l-2.65,14.82Z" fill="#051730" stroke-width="0"/>
      <path d="M592.05,175.17c-2.09,0-3.69.54-4.82,1.63-1.12,1.08-1.89,2.79-2.29,5.12l-.12,1.33h9.76c.8,0,1.4.24,1.81.72.4.48.52,1.13.36,1.93l-2.29,13.49c-.24,1.44-1.13,2.17-2.65,2.17h-10.36l-7.11,40.11c-.24,1.45-1.13,2.17-2.65,2.17h-16.98c-.8,0-1.41-.24-1.81-.72-.4-.48-.52-1.12-.36-1.93l10.84-61.79c1.36-7.79,4.29-13.63,8.79-17.53,4.5-3.89,10.92-5.84,19.27-5.84,4.01,0,7.15.2,9.4.6,1.52.32,2.17,1.29,1.93,2.89l-2.41,14.09c-.24,1.53-.92,2.21-2.05,2.05-1.2-.32-3.29-.48-6.26-.48Z" fill="#051730" stroke-width="0"/>
      <path d="M634.21,175.17c-2.09,0-3.69.54-4.82,1.63s-1.89,2.79-2.29,5.12l-.12,1.33h9.76c.8,0,1.4.24,1.81.72.4.48.52,1.13.36,1.93l-2.29,13.49c-.24,1.44-1.13,2.17-2.65,2.17h-10.36l-7.11,40.11c-.24,1.45-1.13,2.17-2.65,2.17h-16.98c-.8,0-1.41-.24-1.81-.72-.4-.48-.52-1.12-.36-1.93l10.84-61.79c1.36-7.79,4.29-13.63,8.79-17.53,4.5-3.89,10.92-5.84,19.27-5.84,4.01,0,7.15.2,9.4.6,1.52.32,2.17,1.29,1.93,2.89l-2.41,14.09c-.24,1.53-.92,2.21-2.05,2.05-1.2-.32-3.29-.48-6.26-.48Z" fill="#051730" stroke-width="0"/>
      <path d="M642.04,202.51c1.36-7.55,4.78-13.31,10.24-17.28,5.46-3.97,12.33-5.96,20.6-5.96,7.39,0,13.31,1.73,17.77,5.18,4.46,3.45,6.69,8.59,6.69,15.42,0,1.69-.2,3.73-.6,6.14l-1.93,11.08c-.24,1.44-1.13,2.17-2.65,2.17h-30.83l-.12.24c-.16,1.12-.24,1.93-.24,2.41,0,3.69,2.21,5.54,6.62,5.54,2.09,0,4.36-.34,6.81-1.02,2.45-.68,4.8-1.67,7.05-2.95.56-.32,1.08-.48,1.57-.48.72,0,1.28.44,1.69,1.33l5.54,11.2c.16.32.24.72.24,1.2,0,.88-.4,1.57-1.2,2.05-6.91,4.5-15.18,6.75-24.81,6.75-5.14,0-9.66-.9-13.55-2.71-3.9-1.81-6.91-4.38-9.03-7.71-2.13-3.33-3.19-7.17-3.19-11.5,0-.96.16-2.57.48-4.82l2.89-16.26ZM675.64,203.96l.12-1.69c0-3.37-1.61-5.06-4.82-5.06-1.85,0-3.35.58-4.52,1.75s-1.95,2.71-2.35,4.64l-.48,2.53h11.68l.36-2.17Z" fill="#051730" stroke-width="0"/>
      <path d="M705.15,202.51c1.36-7.55,4.78-13.31,10.24-17.28,5.46-3.97,12.33-5.96,20.6-5.96,7.39,0,13.31,1.73,17.77,5.18,4.46,3.45,6.69,8.59,6.69,15.42,0,1.69-.2,3.73-.6,6.14l-1.93,11.08c-.24,1.44-1.13,2.17-2.65,2.17h-30.83l-.12.24c-.16,1.12-.24,1.93-.24,2.41,0,3.69,2.21,5.54,6.62,5.54,2.09,0,4.36-.34,6.81-1.02,2.45-.68,4.8-1.67,7.05-2.95.56-.32,1.08-.48,1.57-.48.72,0,1.28.44,1.69,1.33l5.54,11.2c.16.32.24.72.24,1.2,0,.88-.4,1.57-1.2,2.05-6.91,4.5-15.18,6.75-24.81,6.75-5.14,0-9.66-.9-13.55-2.71-3.9-1.81-6.91-4.38-9.03-7.71-2.13-3.33-3.19-7.17-3.19-11.5,0-.96.16-2.57.48-4.82l2.89-16.26ZM738.75,203.96l.12-1.69c0-3.37-1.61-5.06-4.82-5.06-1.85,0-3.35.58-4.52,1.75s-1.95,2.71-2.35,4.64l-.48,2.53h11.68l.36-2.17Z" fill="#051730" stroke-width="0"/>
    </g>
  </g>
</svg>