<svg xmlns="http://www.w3.org/2000/svg" viewBox="0 0 850.4 425.2">
  <rect width="850.4" height="425.2" fill="#005C38"/>
  <g fill="white">
    <path d="M229.7,176.2l-46.5-46.5l23.9-23.9c7-7,7-18.5,0-25.5c-3.4-3.4-7.9-5.3-12.8-5.3s-9.3,1.9-12.8,5.3l-95.9,95.9
    C46,216,46,280.6,85.7,320.3c19.6,19.6,45.6,29.9,72,29.9c15.7,0,31.5-3.6,46.2-11.1c8.9-4.5,12.4-15.4,7.9-24.3l0,0
    c-4.5-8.9-15.4-12.4-24.3-7.9c-25.5,13-56.1,8.1-76.3-12.1c-25.6-25.6-25.6-67.4,0-93l46.5-46.5l46.5,46.5
    c20.2,20.2,25.1,50.9,12.1,76.3c-3.6,7-2.2,15.4,3.3,20.9c1.3,1.3,2.9,2.5,4.6,3.3c8.9,4.5,19.7,1,24.3-7.9
    C268.6,255,261,207.5,229.7,176.2z"/>
  </g>
</svg>